<svg width="305" height="71" viewBox="0 0 305 71" fill="none" xmlns="http://www.w3.org/2000/svg">
<path d="M32.776 42.32H12.76L7.216 56H0.304L23.056 1.784H23.488L46.24 56H38.176L32.776 42.32ZM30.4 36.272L22.984 17.264L15.28 36.272H30.4ZM87.2373 26.192V56.216C87.2373 58.952 86.5413 61.424 85.1493 63.632C83.7573 65.84 81.7653 67.592 79.1733 68.888C76.6293 70.184 73.6293 70.832 70.1733 70.832C67.1493 70.832 64.5333 70.328 62.3253 69.32C60.1653 68.312 57.9813 66.824 55.7732 64.856L59.7333 60.248C61.3653 61.784 62.9973 62.936 64.6293 63.704C66.2613 64.52 68.0613 64.928 70.0293 64.928C73.3413 64.928 75.8853 64.136 77.6613 62.552C79.4853 60.968 80.4213 58.832 80.4693 56.144L80.5413 50.528C79.4373 52.4 77.8053 53.912 75.6453 55.064C73.5333 56.168 71.0853 56.72 68.3013 56.72C65.5653 56.72 63.0453 56.024 60.7413 54.632C58.4373 53.24 56.5893 51.344 55.1973 48.944C53.8533 46.544 53.1812 43.88 53.1812 40.952C53.1812 37.928 53.8772 35.216 55.2692 32.816C56.7092 30.368 58.6293 28.448 61.0293 27.056C63.4293 25.664 65.9973 24.968 68.7333 24.968C71.2773 24.968 73.6293 25.472 75.7893 26.48C77.9493 27.488 79.5573 28.784 80.6133 30.368L81.1173 26.192H87.2373ZM70.2453 51.176C72.7893 51.176 74.9973 50.48 76.8693 49.088C78.7413 47.696 79.9653 45.872 80.5413 43.616V37.712C79.8693 35.552 78.5973 33.824 76.7253 32.528C74.8533 31.184 72.6933 30.512 70.2453 30.512C67.3173 30.512 64.8693 31.472 62.9013 33.392C60.9333 35.312 59.9493 37.76 59.9493 40.736C59.9493 42.656 60.4053 44.408 61.3173 45.992C62.2293 47.576 63.4773 48.848 65.0613 49.808C66.6453 50.72 68.3733 51.176 70.2453 51.176ZM107.731 26.192V56H101.035V26.192H107.731ZM100.531 15.464C100.531 14.408 100.939 13.52 101.755 12.8C102.571 12.08 103.507 11.72 104.563 11.72C105.619 11.72 106.531 12.08 107.299 12.8C108.115 13.52 108.523 14.408 108.523 15.464C108.523 16.52 108.115 17.408 107.299 18.128C106.531 18.848 105.619 19.208 104.563 19.208C103.507 19.208 102.571 18.848 101.755 18.128C100.939 17.408 100.531 16.52 100.531 15.464ZM128.242 0.199997V56H121.546V0.199997H128.242ZM148.754 26.192V56H142.058V26.192H148.754ZM141.554 15.464C141.554 14.408 141.962 13.52 142.778 12.8C143.594 12.08 144.53 11.72 145.586 11.72C146.642 11.72 147.554 12.08 148.322 12.8C149.138 13.52 149.546 14.408 149.546 15.464C149.546 16.52 149.138 17.408 148.322 18.128C147.554 18.848 146.642 19.208 145.586 19.208C144.53 19.208 143.594 18.848 142.778 18.128C141.962 17.408 141.554 16.52 141.554 15.464Z" fill="white"/>
<path d="M171.138 27.488L172.002 26.12L193.314 3.944H202.314L180.786 26.264L203.538 56H194.682L175.674 30.728L171.282 34.976L171.354 56H164.226V3.944H171.354V24.896L171.138 27.488ZM249.163 3.944V10.64H222.307V26.48H246.283V33.176H222.307V49.232H250.171V56H215.323V3.944H249.163ZM304.842 3.944L285.33 38.648V56H278.346V38.648L259.05 3.944H267.69L282.018 30.728L296.274 3.944H304.842Z" fill="#E17809"/>
</svg>
