<svg width="233" height="87" viewBox="0 0 233 87" fill="none" xmlns="http://www.w3.org/2000/svg">
<path fill-rule="evenodd" clip-rule="evenodd" d="M77.5613 0.00776946C69.2267 0.0948723 61.0929 2.57916 54.1301 7.16437C47.1672 11.7496 41.669 18.2422 38.2913 25.868H42.9896C43.7892 25.868 44.556 26.1858 45.1213 26.7516C45.6867 27.3174 46.0043 28.0848 46.0043 28.885C46.0043 29.6852 45.6867 30.4526 45.1213 31.0184C44.556 31.5842 43.7892 31.902 42.9896 31.902H36.1222C35.5774 33.8825 35.1718 35.8988 34.9085 37.9361H50.225C51.0246 37.9361 51.7914 38.2539 52.3567 38.8197C52.9221 39.3855 53.2397 40.1529 53.2397 40.9531C53.2397 41.7533 52.9221 42.5206 52.3567 43.0864C51.7914 43.6522 51.0246 43.9701 50.225 43.9701H34.564C34.5886 45.9905 34.7534 48.0067 35.0573 50.0042H43.0053C43.8042 50.0062 44.5698 50.3248 45.1347 50.8901C45.6997 51.4555 46.0179 52.2217 46.02 53.0212C46.0179 53.8207 45.6997 54.5869 45.1347 55.1522C44.5698 55.7176 43.8042 56.0361 43.0053 56.0382H36.412C38.7401 63.7753 43.176 70.7104 49.2223 76.0658C55.2685 81.4211 62.686 84.9849 70.6428 86.3576C78.5997 87.7302 86.7814 86.8574 94.2703 83.837C101.759 80.8166 108.259 75.7681 113.042 69.2576C114.832 66.8203 116.355 64.2142 117.594 61.4846H213.102V48.7896C213.102 47.9998 213.415 47.2424 213.973 46.684C214.531 46.1255 215.288 45.8118 216.077 45.8118H217.957C218.746 45.8118 219.503 46.1255 220.061 46.684C220.619 47.2424 220.932 47.9998 220.932 48.7896V61.4846H232.678V26.2207H117.909C117.534 25.355 117.131 24.5001 116.699 23.6573C113.016 16.4667 107.404 10.4451 100.492 6.26789C93.5807 2.09066 85.6429 -0.0770743 77.5691 0.00776946H77.5613ZM78.0233 63.091C74.1515 63.091 70.3666 61.942 67.1473 59.7893C63.928 57.6366 61.4189 54.5769 59.9372 50.9971C58.4555 47.4173 58.0678 43.4782 58.8232 39.6779C59.5785 35.8776 61.443 32.3868 64.1808 29.647C66.9186 26.9071 70.4067 25.0412 74.2042 24.2853C78.0016 23.5294 81.9377 23.9174 85.5148 25.4002C89.0919 26.883 92.1493 29.394 94.3004 32.6157C96.4514 35.8375 97.5996 39.6252 97.5996 43.4999C97.5996 48.6958 95.5371 53.6789 91.8658 57.3529C88.1945 61.0269 83.2152 63.091 78.0233 63.091ZM3.0148 31.9333H33.1623C34.8273 31.9333 36.177 30.5826 36.177 28.9163C36.177 27.2501 34.8273 25.8993 33.1623 25.8993H3.0148C1.3498 25.8993 6.10352e-05 27.2501 6.10352e-05 28.9163C6.10352e-05 30.5826 1.3498 31.9333 3.0148 31.9333ZM33.1623 44.0015H9.04429C7.37929 44.0015 6.02955 42.6507 6.02955 40.9845C6.02955 39.3182 7.37929 37.9674 9.04429 37.9674H33.1623C34.8273 37.9674 36.177 39.3182 36.177 40.9845C36.177 42.6507 34.8273 44.0015 33.1623 44.0015ZM15.0738 56.0696H33.1623C34.8273 56.0696 36.177 54.7188 36.177 53.0526C36.177 51.3863 34.8273 50.0355 33.1623 50.0355H15.0738C13.4088 50.0355 12.059 51.3863 12.059 53.0526C12.059 54.7188 13.4088 56.0696 15.0738 56.0696Z" fill="#E17809"/>
</svg>
