<svg width="510" height="596" viewBox="0 0 510 596" fill="none" xmlns="http://www.w3.org/2000/svg">
<path d="M509.71 244.842C509.71 394.855 408.525 596 253.798 596C99.0716 596 9.00594e-05 467.824 0 341.385C-9.00594e-05 214.946 117.12 0 271.846 0C380.394 0 509.71 94.8293 509.71 244.842Z" fill="#FDEBD8"/>
<path d="M318.571 400.547L318.334 399.92L319.22 399.529L319.404 399.907C319.804 400.733 320.381 401.923 321.085 403.379C322.494 406.291 324.413 410.266 326.455 414.519C330.544 423.034 335.116 432.641 337.082 437.078C339.049 441.518 344.155 453.842 348.778 465.075C351.087 470.688 353.273 476.022 354.882 479.953C355.686 481.919 356.346 483.533 356.805 484.657L357.136 485.468L356.269 485.85L355.83 484.96C355.265 483.817 354.457 482.177 353.479 480.193C351.523 476.225 348.891 470.881 346.185 465.374C340.766 454.349 335.065 442.704 333.886 440.122C332.716 437.561 328.75 427.307 325.056 417.635C323.214 412.812 321.446 408.151 320.138 404.695C319.484 402.968 318.946 401.542 318.571 400.547Z" fill="#E9C48E" stroke="#D6B37E" stroke-width="2.09809"/>
<path d="M298.503 400.556L298.807 399.959L299.694 400.35L299.538 400.74C299.198 401.592 298.707 402.821 298.106 404.322C296.905 407.325 295.262 411.422 293.496 415.798C289.962 424.557 285.947 434.41 283.994 438.853C282.04 443.299 276.378 455.378 271.196 466.364C268.606 471.853 266.139 477.063 264.319 480.901C263.41 482.82 262.662 484.396 262.141 485.492L261.765 486.283L260.898 485.9L261.259 484.976C261.724 483.788 262.39 482.086 263.197 480.026C264.81 475.907 266.983 470.361 269.227 464.65C273.719 453.215 278.479 441.156 279.592 438.544C280.695 435.954 285.597 426.112 290.252 416.865C292.573 412.253 294.824 407.805 296.496 404.51C297.331 402.863 298.022 401.504 298.503 400.556Z" fill="#E9C48E" stroke="#D6B37E" stroke-width="2.09809"/>
<rect x="78.0446" y="296.221" width="323.648" height="8.49575" fill="#BA9467"/>
<path d="M186.03 260.989C187.659 256.631 191.822 253.743 196.475 253.743C201.377 253.743 205.705 256.944 207.139 261.632L218.831 299.862H171.498L186.03 260.989Z" fill="#2F41A2"/>
<rect x="114.05" y="174.044" width="162.228" height="90.6213" rx="5" fill="#2C3877"/>
<rect x="120.119" y="180.113" width="150.092" height="77.6754" fill="white"/>
<rect x="162.598" y="292.985" width="65.1341" height="6.87751" rx="3.43876" fill="#2C3877"/>
<rect x="98.2726" y="304.717" width="5.66383" height="165.06" fill="#917451"/>
<rect x="375.8" y="304.717" width="5.66383" height="165.06" fill="#917451"/>
<path d="M366.988 359.15C366.988 335.278 374.206 321.395 378.446 310.941C370.48 310.941 358.844 349.991 354.805 369.14C354.761 369.349 354.756 369.554 354.776 369.767C355.152 373.928 352.915 383.854 340.922 392.852C328.765 401.972 284.17 400.282 262.591 398.235C262.064 398.185 261.555 398.357 261.16 398.71L259.274 400.395C259.262 400.405 259.252 400.417 259.243 400.43C259.104 400.631 259.869 401.889 260.112 401.876C272.506 401.236 334.692 405.646 336.839 405.646C338.616 405.646 348.459 406.703 352.228 404.085C368.402 392.852 366.988 366.015 366.988 359.15Z" fill="#F9F9F6" stroke="#EAEAE5" stroke-width="2.84353"/>
<path d="M344.836 391.542C334 402.378 281.601 400.613 265.053 399.767C263.305 399.678 262.657 397.484 264.05 396.425L271.248 390.955C271.545 390.729 271.896 390.595 272.269 390.576C280.808 390.153 300.745 391.511 315.583 388.741C334.32 385.243 345.02 383.762 349.504 375.982C353.988 368.202 361.913 329.244 363.819 324.478C366.08 318.826 373.131 310.908 378.214 306.082C378.99 305.346 380.231 305.489 380.844 306.365C381.409 307.173 381.204 308.286 380.419 308.882C363.628 321.63 365.644 340.348 358.529 362.6C352.858 380.335 351.06 385.318 344.836 391.542Z" fill="white" stroke="#EAEAE5" stroke-width="2.84353"/>
<path d="M267.969 426.066L245.233 432.397L266.022 469.943L273.774 467.896L267.969 426.066Z" fill="#B28B67"/>
<path d="M233.616 366.668C245.996 359.715 262.682 362.502 262.682 362.502L275.508 452.106L254.451 459.747C254.451 459.747 221.235 373.621 233.616 366.668Z" fill="#CE802F"/>
<path d="M229.834 365.601C277.378 355.61 303.366 357.892 351.813 354.188C351.813 354.188 356.75 378.687 338.413 390.561C317.184 404.308 229.979 396.975 229.979 396.975L229.834 365.601Z" fill="#FFA03C"/>
<path d="M288.201 199.331L314.122 195.91L308.134 233.193C308.134 233.193 297.327 241.731 284.893 238.016C272.459 234.3 288.201 199.331 288.201 199.331Z" fill="#B28B67"/>
<path d="M321.973 220.071C320.532 225.035 314.631 227.976 311.328 227.991C308.024 228.006 307.477 226.78 307.459 222.903C307.441 219.026 309.552 213.534 316.378 211.375C323.205 209.216 323.025 216.45 321.973 220.071Z" fill="#B28B67"/>
<path d="M297.61 234.656L308.419 226.589L316.575 256.733L293.737 264.148L297.61 234.656Z" fill="#B28B67"/>
<path d="M295.287 280.957L282.081 294.731L249.305 246.734L256.751 243.426L295.287 280.957Z" fill="#B28B67"/>
<path d="M252.5 242.031C252.453 231.759 258.303 240.519 262.816 249.314L253.977 253.59C227.978 242.041 242.452 228.976 252.5 242.031Z" fill="#B28B67"/>
<path d="M319.564 303.184L311.902 311.93C275.931 312.077 254 263.68 256.922 258.247C259.845 252.814 265.789 250.224 265.789 250.224L319.564 303.184Z" fill="#2C3877"/>
<path d="M293.654 245.992L313.91 241.183C313.91 241.183 355.977 307.954 358.809 331.013C361.641 354.073 359.503 363.921 355.977 366.21C352.451 368.499 288.835 377.114 288.835 377.114L293.654 245.992Z" fill="#2F41A2"/>
<path d="M284.268 204.777C288.774 200.229 295.245 199.068 297.918 199.055C297.949 205.846 305.532 214.111 309.32 217.394C314.942 209.446 317.546 211.693 318.257 212.397C323.184 217.278 320.506 222.84 317.843 224.895C315.27 239.621 335.103 235.191 338.358 225.272C360.535 228 356.21 210.335 349.122 207.303C358.776 204.434 352.558 185.358 342.655 185.404C332.752 185.45 335.615 192.746 330.897 192.296C327.123 191.936 324.027 185.259 315.759 181.996C296.861 174.538 287.523 194.702 284.268 204.777Z" fill="#583C12"/>
<line x1="298.019" y1="196.918" x2="298.18" y2="204.461" stroke="#583C12" stroke-width="1.16565"/>
<path d="M234.867 440.954L212.505 442.544L224.484 484.288L232.03 483.717L234.867 440.954Z" fill="#B28B67"/>
<path d="M215.495 368.788C229.148 364.886 244.443 363.407 244.443 363.407L236.495 461.598L214.243 464.162C214.243 464.162 201.843 372.69 215.495 368.788Z" fill="#FFA03C"/>
<path d="M234.874 492.194C236.035 487.451 233.867 483.069 232.874 481.593C223.417 483.058 224.149 481.397 223.198 479.751L202.317 486.718C197.286 486.001 194.954 490.727 197.315 492.367L234.874 492.194Z" fill="#E6E7EB"/>
<path d="M279.278 475.992C279.018 471.115 275.676 467.547 274.299 466.421C265.669 470.558 265.89 468.757 264.503 467.456L246.528 480.163C241.505 480.931 240.64 486.13 243.374 487.017L279.278 475.992Z" fill="#E1E2E4"/>
<path d="M286.762 360.951L277.556 348.41L252.597 374.502L255.884 378.527L286.762 360.951Z" fill="#B28B67"/>
<path d="M254.434 379.984C253.194 395.078 261.935 381.274 266.46 372.486L258.866 368.435C228.486 378.966 242.499 380.568 254.434 379.984Z" fill="#B28B67"/>
<path d="M312.973 249.177L320.638 252.093C340.392 308.733 286.263 374.001 276.11 372.341C265.958 370.681 258.648 362.714 258.648 362.714L312.973 249.177Z" fill="#2C3877"/>
<rect x="166.738" y="231.349" width="56.852" height="13.8497" rx="4.08824" fill="white" stroke="#FFA03C"/>
<path d="M186.068 238.701C185.948 238.775 185.828 238.838 185.708 238.891C185.595 238.938 185.475 238.971 185.348 238.991C185.608 239.031 185.848 239.125 186.068 239.271L187.658 240.201L187.078 241.201L185.488 240.271C185.368 240.198 185.255 240.121 185.148 240.041C185.048 239.961 184.961 239.875 184.888 239.781C184.975 240.001 185.018 240.255 185.018 240.541V242.381H183.838V240.551C183.838 240.418 183.845 240.288 183.858 240.161C183.878 240.035 183.908 239.915 183.948 239.801C183.875 239.895 183.788 239.978 183.688 240.051C183.588 240.125 183.481 240.198 183.368 240.271L181.788 241.191L181.198 240.191L182.788 239.271C183.041 239.125 183.281 239.031 183.508 238.991C183.275 238.951 183.035 238.855 182.788 238.701L181.198 237.771L181.778 236.771L183.368 237.711C183.488 237.785 183.598 237.861 183.698 237.941C183.798 238.015 183.888 238.098 183.968 238.191C183.881 237.971 183.838 237.721 183.838 237.441V235.591H185.018V237.421C185.018 237.561 185.008 237.695 184.988 237.821C184.975 237.948 184.945 238.068 184.898 238.181C184.978 238.088 185.068 238.005 185.168 237.931C185.268 237.858 185.375 237.785 185.488 237.711L187.068 236.791L187.658 237.791L186.068 238.701ZM194.564 238.701C194.444 238.775 194.324 238.838 194.204 238.891C194.091 238.938 193.971 238.971 193.844 238.991C194.104 239.031 194.344 239.125 194.564 239.271L196.154 240.201L195.574 241.201L193.984 240.271C193.864 240.198 193.751 240.121 193.644 240.041C193.544 239.961 193.457 239.875 193.384 239.781C193.471 240.001 193.514 240.255 193.514 240.541V242.381H192.334V240.551C192.334 240.418 192.341 240.288 192.354 240.161C192.374 240.035 192.404 239.915 192.444 239.801C192.371 239.895 192.284 239.978 192.184 240.051C192.084 240.125 191.977 240.198 191.864 240.271L190.284 241.191L189.694 240.191L191.284 239.271C191.537 239.125 191.777 239.031 192.004 238.991C191.771 238.951 191.531 238.855 191.284 238.701L189.694 237.771L190.274 236.771L191.864 237.711C191.984 237.785 192.094 237.861 192.194 237.941C192.294 238.015 192.384 238.098 192.464 238.191C192.377 237.971 192.334 237.721 192.334 237.441V235.591H193.514V237.421C193.514 237.561 193.504 237.695 193.484 237.821C193.471 237.948 193.441 238.068 193.394 238.181C193.474 238.088 193.564 238.005 193.664 237.931C193.764 237.858 193.871 237.785 193.984 237.711L195.564 236.791L196.154 237.791L194.564 238.701ZM203.06 238.701C202.94 238.775 202.82 238.838 202.7 238.891C202.587 238.938 202.467 238.971 202.34 238.991C202.6 239.031 202.84 239.125 203.06 239.271L204.65 240.201L204.07 241.201L202.48 240.271C202.36 240.198 202.247 240.121 202.14 240.041C202.04 239.961 201.953 239.875 201.88 239.781C201.967 240.001 202.01 240.255 202.01 240.541V242.381H200.83V240.551C200.83 240.418 200.837 240.288 200.85 240.161C200.87 240.035 200.9 239.915 200.94 239.801C200.867 239.895 200.78 239.978 200.68 240.051C200.58 240.125 200.473 240.198 200.36 240.271L198.78 241.191L198.19 240.191L199.78 239.271C200.033 239.125 200.273 239.031 200.5 238.991C200.267 238.951 200.027 238.855 199.78 238.701L198.19 237.771L198.77 236.771L200.36 237.711C200.48 237.785 200.59 237.861 200.69 237.941C200.79 238.015 200.88 238.098 200.96 238.191C200.873 237.971 200.83 237.721 200.83 237.441V235.591H202.01V237.421C202.01 237.561 202 237.695 201.98 237.821C201.967 237.948 201.937 238.068 201.89 238.181C201.97 238.088 202.06 238.005 202.16 237.931C202.26 237.858 202.367 237.785 202.48 237.711L204.06 236.791L204.65 237.791L203.06 238.701ZM211.556 238.701C211.436 238.775 211.316 238.838 211.196 238.891C211.083 238.938 210.963 238.971 210.836 238.991C211.096 239.031 211.336 239.125 211.556 239.271L213.146 240.201L212.566 241.201L210.976 240.271C210.856 240.198 210.743 240.121 210.636 240.041C210.536 239.961 210.449 239.875 210.376 239.781C210.463 240.001 210.506 240.255 210.506 240.541V242.381H209.326V240.551C209.326 240.418 209.333 240.288 209.346 240.161C209.366 240.035 209.396 239.915 209.436 239.801C209.363 239.895 209.276 239.978 209.176 240.051C209.076 240.125 208.969 240.198 208.856 240.271L207.276 241.191L206.686 240.191L208.276 239.271C208.529 239.125 208.769 239.031 208.996 238.991C208.763 238.951 208.523 238.855 208.276 238.701L206.686 237.771L207.266 236.771L208.856 237.711C208.976 237.785 209.086 237.861 209.186 237.941C209.286 238.015 209.376 238.098 209.456 238.191C209.369 237.971 209.326 237.721 209.326 237.441V235.591H210.506V237.421C210.506 237.561 210.496 237.695 210.476 237.821C210.463 237.948 210.433 238.068 210.386 238.181C210.466 238.088 210.556 238.005 210.656 237.931C210.756 237.858 210.863 237.785 210.976 237.711L212.556 236.791L213.146 237.791L211.556 238.701Z" fill="#FFA03C"/>
<circle cx="357.139" cy="207.32" r="1.61093" transform="rotate(20.2036 357.139 207.32)" fill="#2F41A2" stroke="#2F41A2" stroke-width="3"/>
<circle cx="363.206" cy="202.094" r="2.38866" transform="rotate(20.2036 363.206 202.094)" fill="#2F41A2" stroke="#2F41A2" stroke-width="3"/>
<circle cx="369.81" cy="195.408" r="3.16639" transform="rotate(20.2036 369.81 195.408)" fill="#2F41A2" stroke="#2F41A2" stroke-width="3"/>
<circle cx="402.299" cy="164.133" r="35.3263" fill="white" stroke="#2F41A2" stroke-width="5"/>
<path d="M391.272 147.92C391.997 147.28 392.787 146.672 393.64 146.096C394.515 145.52 395.453 145.019 396.456 144.592C397.459 144.165 398.547 143.835 399.72 143.6C400.893 143.344 402.163 143.216 403.528 143.216C405.384 143.216 407.069 143.472 408.584 143.984C410.12 144.496 411.432 145.232 412.52 146.192C413.608 147.131 414.451 148.272 415.048 149.616C415.645 150.96 415.944 152.464 415.944 154.128C415.944 155.749 415.709 157.157 415.24 158.352C414.771 159.525 414.184 160.549 413.48 161.424C412.776 162.299 411.997 163.056 411.144 163.696C410.312 164.336 409.523 164.944 408.776 165.52C408.029 166.075 407.379 166.629 406.824 167.184C406.291 167.717 405.971 168.325 405.864 169.008L405.128 173.68H399.72L399.176 168.464C399.048 167.461 399.187 166.587 399.592 165.84C400.019 165.072 400.573 164.379 401.256 163.76C401.96 163.12 402.739 162.512 403.592 161.936C404.445 161.339 405.245 160.699 405.992 160.016C406.739 159.312 407.357 158.533 407.848 157.68C408.36 156.805 408.616 155.771 408.616 154.576C408.616 153.808 408.467 153.125 408.168 152.528C407.891 151.909 407.496 151.387 406.984 150.96C406.472 150.512 405.853 150.171 405.128 149.936C404.424 149.701 403.656 149.584 402.824 149.584C401.608 149.584 400.573 149.723 399.72 150C398.888 150.256 398.173 150.555 397.576 150.896C397 151.216 396.509 151.515 396.104 151.792C395.699 152.048 395.336 152.176 395.016 152.176C394.248 152.176 393.693 151.856 393.352 151.216L391.272 147.92ZM397.32 185.648C397.32 184.987 397.437 184.357 397.672 183.76C397.928 183.163 398.269 182.651 398.696 182.224C399.123 181.797 399.635 181.456 400.232 181.2C400.829 180.944 401.469 180.816 402.152 180.816C402.835 180.816 403.464 180.944 404.04 181.2C404.637 181.456 405.149 181.797 405.576 182.224C406.024 182.651 406.376 183.163 406.632 183.76C406.888 184.357 407.016 184.987 407.016 185.648C407.016 186.331 406.888 186.971 406.632 187.568C406.376 188.144 406.024 188.645 405.576 189.072C405.149 189.499 404.637 189.829 404.04 190.064C403.464 190.32 402.835 190.448 402.152 190.448C401.469 190.448 400.829 190.32 400.232 190.064C399.635 189.829 399.123 189.499 398.696 189.072C398.269 188.645 397.928 188.144 397.672 187.568C397.437 186.971 397.32 186.331 397.32 185.648Z" fill="#2F41A2"/>
<path fill-rule="evenodd" clip-rule="evenodd" d="M205.979 205.963C207.356 206.595 208.313 207.986 208.313 209.6V219.805C208.313 222.014 206.522 223.805 204.313 223.805H186.421C184.212 223.805 182.421 222.014 182.421 219.805V209.6C182.421 207.93 183.445 206.499 184.899 205.9C185.494 195.323 188.956 190.631 195.931 190.631C202.919 190.631 205.549 195.342 205.979 205.963ZM188.726 205.6C188.631 198.03 190.818 194.613 195.977 194.613C200.774 194.613 202.449 198.03 202.235 205.6H188.726Z" fill="#FFA03C"/>
<path fill-rule="evenodd" clip-rule="evenodd" d="M195.711 213.608C196.449 213.376 196.985 212.686 196.985 211.871C196.985 210.865 196.17 210.05 195.165 210.05C194.159 210.05 193.344 210.865 193.344 211.871C193.344 212.686 193.88 213.376 194.619 213.608V217.696H195.711V213.608Z" fill="white"/>
</svg>
