<svg width="94" height="94" viewBox="0 0 94 94" fill="none" xmlns="http://www.w3.org/2000/svg">
<circle cx="47" cy="47" r="47" fill="#212A59"/>
<path d="M63.264 71V63.96H39.584C40.416 60.568 44.256 56.856 51.808 52.056C60.896 46.296 63.008 41.944 63.008 36.184C63.008 28.12 57.44 22.744 48.16 22.744C40.032 22.744 34.528 26.904 30.688 32.792L36.64 36.888C39.584 32.472 43.616 29.912 47.776 29.912C52.256 29.912 55.2 32.344 55.2 36.76C55.2 41.624 52.32 43.864 45.088 48.536C32.608 56.536 30.24 63.128 30.24 69.976V71H63.264Z" fill="white"/>
</svg>
