<svg width="94" height="94" viewBox="0 0 94 94" fill="none" xmlns="http://www.w3.org/2000/svg">
<circle cx="47" cy="47" r="47" fill="#212A59"/>
<path d="M46.752 70.896C57.312 70.896 64.16 65.392 64.16 56.88C64.16 50.544 61.088 46.256 54.112 44.848C59.616 43.376 62.816 39.472 62.816 33.776C62.816 26.736 57.76 21.808 47.584 21.808C41.056 21.808 35.104 24.432 31.2 28.528L35.872 33.52C38.688 30.64 42.784 28.976 46.816 28.976C52.704 28.976 54.944 31.152 54.944 34.928C54.944 39.088 52.512 41.84 43.232 41.84H40.864V48.368H43.04C51.936 48.368 56.224 50.608 56.224 56.56C56.224 61.616 52.448 63.856 46.624 63.856C42.08 63.856 37.984 62.384 34.72 58.096L29.152 62.576C33.184 68.016 39.264 70.896 46.752 70.896Z" fill="white"/>
</svg>
