<svg width="249" height="36" viewBox="0 0 249 36" fill="none" xmlns="http://www.w3.org/2000/svg">
<path d="M10 34.6542L0 6.5542H5.2L13 28.3542L21.3 6.5542H25.8L15.1 34.6542H10Z" fill="white"/>
<path d="M50.4001 19.754C50.5001 16.054 49.8001 12.954 48.4001 10.654C46.5001 7.454 43.4001 5.854 38.9001 5.854C35.0001 5.854 31.9001 7.154 29.6001 9.754C27.3001 12.354 26.1001 15.854 26.1001 20.154C26.1001 24.754 27.4001 28.354 30.0001 31.154C32.6001 33.854 36.1001 35.254 40.5001 35.254C43.4001 35.254 46.7001 34.754 50.2001 33.654V29.654C47.1001 30.754 44.2001 31.354 41.6001 31.354C37.0001 31.354 34.0001 29.554 32.5001 26.054C32.0001 24.954 31.7001 23.454 31.5001 21.354H50.4001V19.754ZM31.6001 17.554C31.9001 14.754 32.6001 12.754 33.8001 11.554C35.0001 10.354 36.7001 9.654 38.8001 9.654C41.8001 9.654 43.8001 10.954 44.7001 13.654C45.0001 14.554 45.2001 15.854 45.2001 17.554H31.6001Z" fill="white"/>
<path d="M54.8 34.6541V6.5541H59.9001V11.8541C60.6001 10.0541 61.4 8.7541 62.3 7.8541C63.5 6.5541 65 5.9541 66.7 5.9541C67 5.9541 67.5 5.9541 68.2 6.0541V10.8541C67.3 10.5541 66.6 10.4541 66 10.4541C64.1 10.4541 62.1001 12.3541 59.9001 16.1541V34.6541H54.8Z" fill="white"/>
<path d="M72.6001 34.6541V6.5541H77.7001V11.8541C79.2001 9.6541 80.5001 8.0541 81.4001 7.3541C82.5001 6.3541 84.0001 5.9541 85.8001 5.9541C88.1001 5.9541 89.9001 6.6541 91.3001 8.1541C92.1001 9.0541 92.8001 10.2541 93.4001 11.8541C94.9001 9.5541 96.2001 8.0541 97.1001 7.3541C98.2001 6.4541 99.7001 6.0541 101.6 6.0541C106.7 6.0541 109.2 8.8541 109.2 14.3541V34.7541H104.1V15.1541C104.1 11.9541 102.9 10.3541 100.3 10.3541C98.1001 10.3541 95.8001 12.2541 93.4001 15.9541V34.7541H88.3001V14.9541C88.3001 11.7541 87.0001 10.1541 84.5001 10.1541C82.3001 10.1541 80.0001 12.0541 77.6001 15.7541V34.5541L72.6001 34.6541Z" fill="white"/>
<path d="M142.7 34.6541V6.5541H147.8V11.8541C149.1 10.1541 150.3 8.7541 151.5 7.8541C153.3 6.5541 155.2 5.9541 157.4 5.9541C162.2 5.9541 164.6 8.7541 164.6 14.4541V34.6541H159.4V16.1541C159.4 13.8541 159.2 12.3541 158.7 11.5541C158.2 10.7541 157.3 10.3541 156 10.3541C153.2 10.3541 150.4 12.4541 147.8 16.5541V34.7541L142.7 34.6541Z" fill="white"/>
<path d="M168.9 33.6541V28.9541C172.4 30.6541 175.5 31.4541 178.5 31.4541C182.4 31.4541 184.4 30.0541 184.4 27.3541C184.4 25.4541 183 24.0541 180.3 23.1541L175.7 21.6541C171.3 20.2541 169.1 17.5541 169.1 13.7541C169.1 8.5541 172.7 5.9541 179.9 5.9541C182 5.9541 184.5 6.2541 187.4 6.7541V11.0541C184.8 10.1541 182.2 9.7541 179.5 9.7541C175.9 9.7541 174.1 10.9541 174.1 13.2541C174.1 14.9541 175.3 16.1541 177.8 16.9541L181.9 18.2541C187 19.8541 189.5 22.7541 189.5 26.7541C189.5 29.3541 188.5 31.4541 186.5 32.9541C184.5 34.4541 181.7 35.2541 178.3 35.2541C175.5 35.2541 172.4 34.7541 168.9 33.6541Z" fill="white"/>
<path d="M204.5 34.7541C203.5 35.0541 202.5 35.2541 201.6 35.2541C197 35.2541 194.7 32.4541 194.7 26.8541V10.3541H191.5V6.5541H194.7V1.4541L199.8 0.954102V6.5541H205.3V10.3541H199.8V25.9541C199.8 28.1541 200 29.6541 200.4 30.3541C200.8 31.0541 201.6 31.4541 202.8 31.4541C203.5 31.4541 204 31.3541 204.5 31.1541V34.7541Z" fill="white"/>
<path d="M235.6 34.6541V6.5541H240.7V11.8541C241.4 10.0541 242.2 8.7541 243.1 7.8541C244.3 6.5541 245.8 5.9541 247.5 5.9541C247.8 5.9541 248.3 5.9541 249 6.0541V10.8541C248.1 10.5541 247.4 10.4541 246.8 10.4541C244.9 10.4541 242.9 12.3541 240.7 16.1541V34.6541H235.6Z" fill="white"/>
<path d="M231.6 19.754C231.6 16.054 231 12.954 229.6 10.654C227.7 7.454 224.6 5.854 220.1 5.854C216.2 5.854 213.1 7.154 210.8 9.754C208.5 12.354 207.3 15.854 207.3 20.154C207.3 24.754 208.6 28.354 211.2 31.154C213.8 33.854 217.3 35.254 221.7 35.254C224.6 35.254 227.9 34.754 231.4 33.654V29.654C228.3 30.754 225.4 31.354 222.8 31.354C218.2 31.354 215.2 29.554 213.7 26.054C213.2 24.954 212.9 23.454 212.7 21.354H231.6V19.754ZM212.8 17.554C213.1 14.754 213.8 12.754 215 11.554C216.2 10.354 217.9 9.654 220 9.654C223 9.654 225 10.954 225.9 13.654C226.2 14.554 226.4 15.854 226.4 17.554H212.8Z" fill="white"/>
<path d="M113.5 26.9541V34.6541H120.1C118.7 34.3541 117.4 33.7541 116.3 32.8541C114.8 31.3541 113.9 29.4541 113.5 26.9541Z" fill="white"/>
<path d="M127.4 6.5542H113.5V22.5542C113.9 18.4542 115.3 14.8542 117.8 11.8542C120.4 8.6542 123.7 6.8542 127.4 6.5542Z" fill="white"/>
<path d="M138.6 16.1542V6.5542H129.7C132.4 6.7542 134.5 7.5542 136 9.0542C137.7 10.7542 138.5 13.0542 138.6 16.1542Z" fill="white"/>
<path d="M138.6 17.2542C138.5 22.1542 137 26.3542 134.1 29.7542C131.9 32.3542 129.2 34.0542 126.1 34.6542H138.6V17.2542Z" fill="white"/>
<path d="M128.2 10.1543C125.5 10.1543 123.2 11.5543 121.4 14.4543C119.6 17.3543 118.7 20.8543 118.7 24.9543C118.7 26.9543 119.2 28.4543 120.1 29.5543C121 30.6543 122.3 31.1543 123.8 31.1543C126.2 31.1543 128.2 30.0543 130 27.7543C132.2 24.7543 133.3 20.9543 133.3 16.3543C133.3 12.2543 131.6 10.1543 128.2 10.1543Z" fill="white"/>
</svg>
