  <svg xmlns="http://www.w3.org/2000/svg" xmlns:xlink="http://www.w3.org/1999/xlink">
    <defs>
      <style>
        #wide {
          visibility: visible;
        }

        #tall {
          visibility: hidden;
        }

        @media (max-width: 345px) {
          #wide {
            visibility: hidden;
          }

          #tall {
            visibility: visible;
          }
        }
    </style>
  </defs>
    <symbol id="logo" viewBox="0 0 46 44">
      <path d="M39.7321 43.798H5.67602C2.55421 43.798 0 41.3694 0 38.4011V6.01991C0 3.05164 2.55421 0.623047 5.67602 0.623047H39.7321C42.8539 0.623047 45.4081 3.05164 45.4081 6.01991V38.4011C45.4081 41.3694 42.8539 43.798 39.7321 43.798Z" fill="#E07926"/>
      <path d="M26.0748 26.6737C26.0748 27.5912 25.2802 28.2928 24.372 28.2928H9.16032C8.1954 28.2928 7.45752 27.5372 7.45752 26.6737C7.45752 25.7563 8.25216 25.0547 9.16032 25.0547H24.372C25.337 25.0547 26.0748 25.8102 26.0748 26.6737Z" fill="#212A59"/>
      <path d="M26.0753 18.6322C26.0753 19.5497 25.2807 20.2513 24.3725 20.2513H9.16081C8.19589 20.2513 7.45801 19.4957 7.45801 18.6322C7.45801 17.7148 8.25265 17.0132 9.16081 17.0132H24.3725C25.3375 17.0132 26.0753 17.7687 26.0753 18.6322Z" fill="#212A59"/>
      <path d="M38.3933 23.7594C37.7122 24.407 36.6337 24.407 35.9526 23.7594L25.225 13.5593C24.5438 12.9117 24.5438 11.8863 25.225 11.2386C25.9061 10.591 26.9845 10.591 27.6656 11.2386L38.3933 21.4387C39.0744 22.0864 39.0744 23.1118 38.3933 23.7594Z" fill="#212A59"/>
      <path d="M38.3916 21.3846C39.0727 22.0323 39.0727 23.0577 38.3916 23.7053L27.6639 33.9054C26.9828 34.553 25.9044 34.553 25.2232 33.9054C24.5421 33.2578 24.5421 32.2323 25.2232 31.5847L35.9509 21.3846C36.632 20.737 37.7105 20.737 38.3916 21.3846Z" fill="#212A59"/>
    </symbol>
    <symbol id="word" viewBox="0 0 273 70">
      <path d="M3.75762 56.3399C3.75762 58.0386 5.04448 59.3254 6.74313 59.3254C8.44179 59.3254 9.72864 58.0386 9.72864 56.3399V40.4859C11.2214 39.2505 13.2289 38.2725 14.8246 38.2725C17.5527 38.2725 19.097 39.4564 19.097 43.0081V56.3399C19.097 58.0386 20.3324 59.3254 22.0825 59.3254C23.7811 59.3254 25.068 58.0386 25.068 56.3399V43.0081C25.068 36.1105 21.7222 33.3309 16.5233 33.3309C14.0525 33.3309 11.7876 34.206 9.72864 35.8532V24.5803C9.72864 22.8816 8.44179 21.5948 6.74313 21.5948C5.04448 21.5948 3.75762 22.8816 3.75762 24.5803V56.3399ZM45.3843 52.3764C43.6856 53.9206 41.7296 54.6413 40.0824 54.6413C37.7661 54.6413 36.2733 53.4574 36.2733 51.5014C36.2733 49.4939 37.869 48.4129 40.7516 48.4129H45.3843V52.3764ZM45.3843 44.3464H40.5457C34.2658 44.3464 30.4567 47.0746 30.4567 51.8617C30.4567 56.2885 33.5966 59.5313 38.5896 59.5313C41.5752 59.5313 44.2518 58.296 46.2593 56.237L46.5682 57.4724C46.7741 58.296 47.5976 59.3254 49.2448 59.3254C51.0464 59.3254 51.9215 58.0386 51.9215 56.5973C51.9215 55.4649 51.3553 54.3324 51.3553 51.3984V42.5963C51.3553 38.5813 49.7596 33.3309 41.2663 33.3309C38.95 33.3309 35.7586 33.8457 33.9055 34.7722C32.7216 35.4414 32.2583 36.162 32.2583 36.9856C32.2583 38.221 33.0819 39.4049 34.6776 39.4049C35.5527 39.4049 36.6851 39.0446 37.6116 38.7872C38.7955 38.4269 39.825 38.2725 40.7516 38.2725C44.4577 38.2725 45.3843 40.28 45.3843 42.5963V44.3464ZM67.4474 38.0151C68.8372 38.0151 70.1756 38.3239 71.5139 38.8387C72.4919 39.1475 73.4184 39.6108 74.2935 39.6108C75.8377 39.6108 76.5584 38.4269 76.5584 37.3459C76.5584 36.2135 75.7863 35.4414 74.7568 34.9266C72.9552 34.0001 69.4549 33.3309 67.0871 33.3309C62.4544 33.3309 57.6673 35.8532 57.6673 40.8976C57.6673 46.251 63.1236 47.7952 66.212 48.6703C69.352 49.5968 71.4109 50.3174 71.4109 52.1705C71.4109 53.6633 69.9697 54.8987 67.3445 54.8987C65.9032 54.8987 64.359 54.5383 62.9177 54.0751C61.7852 53.7662 60.7558 53.303 59.8292 53.303C58.182 53.303 57.3585 54.5383 57.3585 55.7737C57.3585 56.8032 58.0276 57.5238 59.2115 58.0901C61.2705 59.0681 65.0796 59.5313 67.3445 59.5313C72.6463 59.5313 77.382 56.9576 77.382 51.9131C77.382 46.9201 72.6978 45.3759 68.8887 44.2435C65.9547 43.3684 63.6383 42.6478 63.6383 40.5888C63.6383 39.1475 64.7708 38.0151 67.4474 38.0151ZM83.2814 56.3399C83.2814 58.0386 84.5683 59.3254 86.2669 59.3254C87.9656 59.3254 89.2524 58.0386 89.2524 56.3399V40.4859C90.7452 39.2505 92.7527 38.2725 94.3484 38.2725C97.0765 38.2725 98.6207 39.4564 98.6207 43.0081V56.3399C98.6207 58.0386 99.8561 59.3254 101.606 59.3254C103.305 59.3254 104.592 58.0386 104.592 56.3399V43.0081C104.592 36.1105 101.246 33.3309 96.047 33.3309C93.5763 33.3309 91.3114 34.206 89.2524 35.8532V24.5803C89.2524 22.8816 87.9656 21.5948 86.2669 21.5948C84.5683 21.5948 83.2814 22.8816 83.2814 24.5803V56.3399Z" fill="#E07926"/>
      <path d="M116.775 35.4414C116.415 34.3604 115.591 33.5883 114.098 33.5883C112.194 33.5883 111.37 34.9266 111.37 36.4194C111.37 37.6033 111.937 38.7872 111.937 41.3609V66.6348C111.937 68.3335 113.275 69.6203 114.922 69.6203C116.672 69.6203 117.908 68.3335 117.908 66.6348V58.4504C119.452 59.0166 120.842 59.4799 122.746 59.4799C130.21 59.4799 134.122 54.2295 134.122 46.3024C134.122 38.7357 130.673 33.3309 124.342 33.3309C121.82 33.3309 119.4 34.4119 117.084 36.6768L116.775 35.4414ZM117.908 40.4859C119.709 38.9931 121.614 38.2725 123.106 38.2725C126.504 38.2725 128.099 41.4124 128.099 46.5598C128.099 51.5014 126.504 54.6413 122.386 54.6413C120.945 54.6413 119.143 54.2295 117.908 53.6118V40.4859ZM140.386 56.3399C140.386 58.0386 141.673 59.3254 143.371 59.3254C145.07 59.3254 146.357 58.0386 146.357 56.3399V40.4859C147.849 39.2505 149.857 38.2725 151.453 38.2725C154.181 38.2725 155.725 39.4564 155.725 43.0081V56.3399C155.725 58.0386 156.96 59.3254 158.711 59.3254C160.409 59.3254 161.696 58.0386 161.696 56.3399V43.0081C161.696 36.1105 158.35 33.3309 153.151 33.3309C150.681 33.3309 148.416 34.206 146.357 35.8532V24.5803C146.357 22.8816 145.07 21.5948 143.371 21.5948C141.673 21.5948 140.386 22.8816 140.386 24.5803V56.3399ZM167.033 56.4944C167.033 57.8842 168.114 59.0166 169.504 59.0166H183.66C185.049 59.0166 186.13 57.9356 186.13 56.5458C186.13 55.156 185.049 54.0751 183.66 54.0751H179.13V41.3094C180.623 40.28 183.351 38.8901 185.358 38.6843L185.873 42.0816C186.079 43.3169 186.902 44.2949 188.447 44.2949C189.836 44.2949 191.072 43.1625 190.917 41.5153L190.403 35.6987C190.3 34.2575 189.064 33.3309 187.366 33.3309C184.071 33.3309 180.52 34.8237 177.74 36.7797L177.431 35.4414C177.174 34.5663 176.453 33.8457 175.475 33.8457H169.607C168.217 33.8457 167.136 34.9781 167.136 36.3679C167.136 37.7577 168.217 38.8387 169.607 38.8387H173.159V54.0751H169.504C168.114 54.0751 167.033 55.1046 167.033 56.4944ZM208.504 52.3764C206.805 53.9206 204.849 54.6413 203.202 54.6413C200.885 54.6413 199.393 53.4574 199.393 51.5014C199.393 49.4939 200.988 48.4129 203.871 48.4129H208.504V52.3764ZM208.504 44.3464H203.665C197.385 44.3464 193.576 47.0746 193.576 51.8617C193.576 56.2885 196.716 59.5313 201.709 59.5313C204.694 59.5313 207.371 58.296 209.379 56.237L209.687 57.4724C209.893 58.296 210.717 59.3254 212.364 59.3254C214.166 59.3254 215.041 58.0386 215.041 56.5973C215.041 55.4649 214.475 54.3324 214.475 51.3984V42.5963C214.475 38.5813 212.879 33.3309 204.386 33.3309C202.069 33.3309 198.878 33.8457 197.025 34.7722C195.841 35.4414 195.378 36.162 195.378 36.9856C195.378 38.221 196.201 39.4049 197.797 39.4049C198.672 39.4049 199.804 39.0446 200.731 38.7872C201.915 38.4269 202.944 38.2725 203.871 38.2725C207.577 38.2725 208.504 40.28 208.504 42.5963V44.3464ZM230.567 38.0151C231.956 38.0151 233.295 38.3239 234.633 38.8387C235.611 39.1475 236.538 39.6108 237.413 39.6108C238.957 39.6108 239.678 38.4269 239.678 37.3459C239.678 36.2135 238.906 35.4414 237.876 34.9266C236.074 34.0001 232.574 33.3309 230.206 33.3309C225.574 33.3309 220.787 35.8532 220.787 40.8976C220.787 46.251 226.243 47.7952 229.331 48.6703C232.471 49.5968 234.53 50.3174 234.53 52.1705C234.53 53.6633 233.089 54.8987 230.464 54.8987C229.022 54.8987 227.478 54.5383 226.037 54.0751C224.905 53.7662 223.875 53.303 222.948 53.303C221.301 53.303 220.478 54.5383 220.478 55.7737C220.478 56.8032 221.147 57.5238 222.331 58.0901C224.39 59.0681 228.199 59.5313 230.464 59.5313C235.766 59.5313 240.501 56.9576 240.501 51.9131C240.501 46.9201 235.817 45.3759 232.008 44.2435C229.074 43.3684 226.758 42.6478 226.758 40.5888C226.758 39.1475 227.89 38.0151 230.567 38.0151ZM251.136 48.207H264.365C265.704 48.207 266.682 47.7437 266.682 45.0156C266.682 38.3239 263.748 33.3309 256.284 33.3309C248.974 33.3309 245.114 38.3754 245.114 46.3539C245.114 54.178 248.871 59.5313 257.056 59.5313C259.218 59.5313 262.461 59.1196 264.314 58.0901C265.292 57.5753 266.064 56.8547 266.064 55.7737C266.064 54.6413 265.343 53.5603 263.696 53.5603C262.718 53.5603 261.689 54.0236 260.608 54.2295C259.527 54.4869 258.343 54.7442 257.107 54.7442C252.629 54.7442 251.136 51.8102 251.136 48.207ZM251.136 44.2949C251.394 40.5888 253.092 38.2725 256.284 38.2725C259.938 38.2725 261.122 40.7947 261.174 44.2949H251.136Z" fill="white"/>
    </symbol>
    <svg id="wide" viewBox="0 0 340 70">
      <use xlink:href="#logo" width="55"/>
      <use xlink:href="#word" width="273" x="70"/>
    </svg>
    <svg id="tall" viewBox="-50 0 300 130">
      <use xlink:href="#logo" x="80" width="50" height="92"/>
      <use xlink:href="#word" x="-20" y="40" width="250" height="130"/>
     </svg>
  </svg>