  <svg width="450" height="100" viewBox="0 0 327 69" xmlns="http://www.w3.org/2000/svg" fill="none">
    <path d="M76.0194 52.5035C76.0194 54.0878 77.2196 55.2881 78.8039 55.2881C80.3883 55.2881 81.5885 54.0878 81.5885 52.5035V37.7165C82.9808 36.5642 84.8532 35.6521 86.3415 35.6521C88.886 35.6521 90.3263 36.7563 90.3263 40.069V52.5035C90.3263 54.0878 91.4785 55.2881 93.1108 55.2881C94.6952 55.2881 95.8954 54.0878 95.8954 52.5035V40.069C95.8954 33.6357 92.7748 31.0431 87.9258 31.0431C85.6213 31.0431 83.5089 31.8593 81.5885 33.3956V22.8815C81.5885 21.2971 80.3883 20.0969 78.8039 20.0969C77.2196 20.0969 76.0194 21.2971 76.0194 22.8815V52.5035ZM114.844 48.8067C113.26 50.247 111.436 50.9192 109.899 50.9192C107.739 50.9192 106.347 49.8149 106.347 47.9906C106.347 46.1182 107.835 45.11 110.523 45.11H114.844V48.8067ZM114.844 41.3172H110.331C104.474 41.3172 100.921 43.8617 100.921 48.3266C100.921 52.4555 103.85 55.4801 108.507 55.4801C111.292 55.4801 113.788 54.3279 115.66 52.4075L115.948 53.5597C116.141 54.3279 116.909 55.2881 118.445 55.2881C120.125 55.2881 120.942 54.0878 120.942 52.7435C120.942 51.6873 120.413 50.6311 120.413 47.8946V39.6849C120.413 35.9401 118.925 31.0431 111.003 31.0431C108.843 31.0431 105.866 31.5232 104.138 32.3874C103.034 33.0115 102.602 33.6837 102.602 34.4518C102.602 35.6041 103.37 36.7083 104.858 36.7083C105.674 36.7083 106.731 36.3722 107.595 36.1322C108.699 35.7961 109.659 35.6521 110.523 35.6521C113.98 35.6521 114.844 37.5244 114.844 39.6849V41.3172ZM135.422 35.412C136.719 35.412 137.967 35.7001 139.215 36.1802C140.127 36.4682 140.992 36.9003 141.808 36.9003C143.248 36.9003 143.92 35.7961 143.92 34.7879C143.92 33.7317 143.2 33.0115 142.24 32.5314C140.559 31.6673 137.295 31.0431 135.086 31.0431C130.765 31.0431 126.301 33.3956 126.301 38.1006C126.301 43.0936 131.39 44.5339 134.27 45.35C137.199 46.2142 139.119 46.8863 139.119 48.6147C139.119 50.007 137.775 51.1592 135.326 51.1592C133.982 51.1592 132.542 50.8232 131.198 50.3911C130.141 50.103 129.181 49.6709 128.317 49.6709C126.781 49.6709 126.013 50.8232 126.013 51.9754C126.013 52.9356 126.637 53.6077 127.741 54.1358C129.661 55.048 133.214 55.4801 135.326 55.4801C140.271 55.4801 144.688 53.0796 144.688 48.3747C144.688 43.7177 140.319 42.2774 136.767 41.2212C134.03 40.405 131.87 39.7329 131.87 37.8125C131.87 36.4682 132.926 35.412 135.422 35.412ZM150.191 52.5035C150.191 54.0878 151.391 55.2881 152.975 55.2881C154.56 55.2881 155.76 54.0878 155.76 52.5035V37.7165C157.152 36.5642 159.024 35.6521 160.513 35.6521C163.057 35.6521 164.498 36.7563 164.498 40.069V52.5035C164.498 54.0878 165.65 55.2881 167.282 55.2881C168.867 55.2881 170.067 54.0878 170.067 52.5035V40.069C170.067 33.6357 166.946 31.0431 162.097 31.0431C159.793 31.0431 157.68 31.8593 155.76 33.3956V22.8815C155.76 21.2971 154.56 20.0969 152.975 20.0969C151.391 20.0969 150.191 21.2971 150.191 22.8815V52.5035Z" fill="#E07827" />
    <path d="M181.43 33.0115C181.094 32.0033 180.326 31.2832 178.934 31.2832C177.157 31.2832 176.389 32.5314 176.389 33.9237C176.389 35.0279 176.917 36.1322 176.917 38.5326V62.1054C176.917 63.6898 178.165 64.89 179.702 64.89C181.334 64.89 182.486 63.6898 182.486 62.1054V54.4719C183.927 55 185.223 55.4321 186.999 55.4321C193.961 55.4321 197.609 50.5351 197.609 43.1416C197.609 36.0842 194.393 31.0431 188.487 31.0431C186.135 31.0431 183.879 32.0513 181.718 34.1638L181.43 33.0115ZM182.486 37.7165C184.167 36.3242 185.943 35.6521 187.335 35.6521C190.504 35.6521 191.992 38.5807 191.992 43.3816C191.992 47.9906 190.504 50.9192 186.663 50.9192C185.319 50.9192 183.639 50.5351 182.486 49.959V37.7165ZM203.452 52.5035C203.452 54.0878 204.652 55.2881 206.236 55.2881C207.82 55.2881 209.021 54.0878 209.021 52.5035V37.7165C210.413 36.5642 212.285 35.6521 213.774 35.6521C216.318 35.6521 217.758 36.7563 217.758 40.069V52.5035C217.758 54.0878 218.911 55.2881 220.543 55.2881C222.127 55.2881 223.328 54.0878 223.328 52.5035V40.069C223.328 33.6357 220.207 31.0431 215.358 31.0431C213.053 31.0431 210.941 31.8593 209.021 33.3956V22.8815C209.021 21.2971 207.82 20.0969 206.236 20.0969C204.652 20.0969 203.452 21.2971 203.452 22.8815V52.5035ZM228.306 52.6475C228.306 53.9438 229.314 55 230.61 55H243.813C245.109 55 246.117 53.9918 246.117 52.6955C246.117 51.3993 245.109 50.3911 243.813 50.3911H239.588V38.4846C240.98 37.5244 243.525 36.2282 245.397 36.0361L245.877 39.2048C246.069 40.357 246.837 41.2692 248.278 41.2692C249.574 41.2692 250.726 40.213 250.582 38.6767L250.102 33.2516C250.006 31.9073 248.854 31.0431 247.269 31.0431C244.197 31.0431 240.884 32.4354 238.292 34.2598L238.004 33.0115C237.764 32.1954 237.091 31.5232 236.179 31.5232H230.706C229.41 31.5232 228.402 32.5794 228.402 33.8757C228.402 35.172 229.41 36.1802 230.706 36.1802H234.019V50.3911H230.61C229.314 50.3911 228.306 51.3513 228.306 52.6475ZM266.985 48.8067C265.4 50.247 263.576 50.9192 262.04 50.9192C259.879 50.9192 258.487 49.8149 258.487 47.9906C258.487 46.1182 259.975 45.11 262.664 45.11H266.985V48.8067ZM266.985 41.3172H262.472C256.614 41.3172 253.062 43.8617 253.062 48.3266C253.062 52.4555 255.99 55.4801 260.647 55.4801C263.432 55.4801 265.928 54.3279 267.801 52.4075L268.089 53.5597C268.281 54.3279 269.049 55.2881 270.585 55.2881C272.266 55.2881 273.082 54.0878 273.082 52.7435C273.082 51.6873 272.554 50.6311 272.554 47.8946V39.6849C272.554 35.9401 271.065 31.0431 263.144 31.0431C260.983 31.0431 258.007 31.5232 256.278 32.3874C255.174 33.0115 254.742 33.6837 254.742 34.4518C254.742 35.6041 255.51 36.7083 256.999 36.7083C257.815 36.7083 258.871 36.3722 259.735 36.1322C260.839 35.7961 261.8 35.6521 262.664 35.6521C266.12 35.6521 266.985 37.5244 266.985 39.6849V41.3172ZM287.563 35.412C288.859 35.412 290.107 35.7001 291.356 36.1802C292.268 36.4682 293.132 36.9003 293.948 36.9003C295.388 36.9003 296.06 35.7961 296.06 34.7879C296.06 33.7317 295.34 33.0115 294.38 32.5314C292.7 31.6673 289.435 31.0431 287.227 31.0431C282.906 31.0431 278.441 33.3956 278.441 38.1006C278.441 43.0936 283.53 44.5339 286.411 45.35C289.339 46.2142 291.26 46.8863 291.26 48.6147C291.26 50.007 289.915 51.1592 287.467 51.1592C286.122 51.1592 284.682 50.8232 283.338 50.3911C282.282 50.103 281.321 49.6709 280.457 49.6709C278.921 49.6709 278.153 50.8232 278.153 51.9754C278.153 52.9356 278.777 53.6077 279.881 54.1358C281.802 55.048 285.354 55.4801 287.467 55.4801C292.412 55.4801 296.829 53.0796 296.829 48.3747C296.829 43.7177 292.46 42.2774 288.907 41.2212C286.17 40.405 284.01 39.7329 284.01 37.8125C284.01 36.4682 285.066 35.412 287.563 35.412ZM306.748 44.9179H319.086C320.335 44.9179 321.247 44.4859 321.247 41.9413C321.247 35.7001 318.51 31.0431 311.549 31.0431C304.732 31.0431 301.131 35.7481 301.131 43.1896C301.131 50.4871 304.635 55.4801 312.269 55.4801C314.285 55.4801 317.31 55.096 319.038 54.1358C319.951 53.6557 320.671 52.9836 320.671 51.9754C320.671 50.9192 319.999 49.911 318.462 49.911C317.55 49.911 316.59 50.3431 315.582 50.5351C314.574 50.7751 313.469 51.0152 312.317 51.0152C308.14 51.0152 306.748 48.2786 306.748 44.9179ZM306.748 41.2692C306.988 37.8125 308.572 35.6521 311.549 35.6521C314.958 35.6521 316.062 38.0045 316.11 41.2692H306.748Z" fill="white" />
    <path d="M51.0264 63.7886H7.28948C3.28027 63.7886 0 60.5083 0 56.4991V12.7623C0 8.75304 3.28027 5.47278 7.28948 5.47278H51.0264C55.0356 5.47278 58.3158 8.75304 58.3158 12.7623V56.4991C58.3158 60.5083 55.0356 63.7886 51.0264 63.7886Z" fill="#E07728" />
    <path d="M33.4869 40.6587C33.4869 41.8979 32.4664 42.8456 31.3 42.8456H11.7642C10.525 42.8456 9.57739 41.825 9.57739 40.6587C9.57739 39.4195 10.5979 38.4719 11.7642 38.4719H31.3C32.5392 38.4719 33.4869 39.4924 33.4869 40.6587Z" fill="#212A59" />
    <path d="M33.4871 29.7974C33.4871 31.0367 32.4666 31.9843 31.3003 31.9843H11.7645C10.5253 31.9843 9.57764 30.9638 9.57764 29.7974C9.57764 28.5582 10.5982 27.6106 11.7645 27.6106H31.3003C32.5395 27.6106 33.4871 28.6311 33.4871 29.7974Z" fill="#212A59" />
    <path d="M49.3052 36.7224C48.4305 37.5972 47.0455 37.5972 46.1707 36.7224L32.3936 22.9453C31.5189 22.0706 31.5189 20.6856 32.3936 19.8108C33.2683 18.9361 34.6533 18.9361 35.5281 19.8108L49.3052 33.588C50.1799 34.4627 50.1799 35.8477 49.3052 36.7224Z" fill="#212A59" />
    <path d="M49.3047 33.5151C50.1794 34.3899 50.1794 35.7749 49.3047 36.6496L35.5276 50.4267C34.6529 51.3014 33.2679 51.3014 32.3931 50.4267C31.5184 49.552 31.5184 48.167 32.3931 47.2922L46.1702 33.5151C47.045 32.6404 48.43 32.6404 49.3047 33.5151Z" fill="#212A59" />
  </svg>