<svg width="59" height="55" viewBox="0 0 59 55" fill="none" xmlns="http://www.w3.org/2000/svg">
<path d="M34.4405 36.8059C34.4405 38.927 32.9704 40.5489 31.2904 40.5489H3.15004C1.36502 40.5489 0 38.8022 0 36.8059C0 34.6849 1.47002 33.063 3.15004 33.063H31.2904C33.0754 33.063 34.4405 34.8097 34.4405 36.8059Z" fill="#212A59"/>
<path d="M34.4422 18.2156C34.4422 20.3366 32.9722 21.9586 31.2922 21.9586H3.15181C1.36679 21.9586 0.00177002 20.2119 0.00177002 18.2156C0.00177002 16.0946 1.47179 14.4727 3.15181 14.4727H31.2922C33.0772 14.4727 34.4422 16.2194 34.4422 18.2156Z" fill="#212A59"/>
<path d="M57.2281 30.0684C55.9681 31.5656 53.9731 31.5656 52.7131 30.0684L32.8678 6.48779C31.6078 4.99061 31.6078 2.62007 32.8678 1.12289C34.1278 -0.374296 36.1229 -0.374296 37.3829 1.12289L57.2281 24.7035C58.4882 26.2007 58.4882 28.5712 57.2281 30.0684Z" fill="#212A59"/>
<path d="M57.2254 24.5787C58.4854 26.0759 58.4854 28.4464 57.2254 29.9436L37.3801 53.5241C36.1201 55.0213 34.1251 55.0213 32.8651 53.5241C31.605 52.027 31.605 49.6564 32.8651 48.1593L52.7103 24.5787C53.9704 23.0815 55.9654 23.0815 57.2254 24.5787Z" fill="#212A59"/>
</svg>
