<svg width="100" height="100" viewBox="0 0 100 100" fill="none" xmlns="http://www.w3.org/2000/svg">
<g clip-path="url(#clip0)">
<path fill-rule="evenodd" clip-rule="evenodd" d="M50.0004 2.83781e-06C38.1244 -0.00404692 26.6348 4.3265 17.5886 12.2163C8.54236 20.1061 2.53032 31.04 0.628819 43.0603C-1.27268 55.0807 1.06053 67.4025 7.21072 77.8199C13.3609 88.2372 22.9265 96.0697 34.1948 99.9151C36.6786 100.391 37.6059 98.8029 37.6059 97.4446C37.6059 96.2221 37.5645 92.1895 37.5397 87.9022C23.6301 91.0009 20.6992 81.8575 20.6992 81.8575C18.4223 75.9148 15.1436 74.3527 15.1436 74.3527C10.6064 71.169 15.4831 71.2369 15.4831 71.2369C20.5087 71.602 23.1499 76.5175 23.1499 76.5175C27.6126 84.3535 34.8489 82.0952 37.697 80.7624C38.1524 77.4514 39.444 75.1931 40.8764 73.9112C29.8066 72.6292 18.0911 68.2316 18.0911 48.5865C18.0168 43.484 19.8644 38.5487 23.2493 34.8077C22.7277 33.5173 21.0138 28.3046 23.7295 21.2242C23.7295 21.2242 27.9272 19.8489 37.4818 26.4793C45.6799 24.1814 54.3292 24.1814 62.5273 26.4793C72.0322 19.8828 76.263 21.2242 76.263 21.2242C78.9787 28.2876 77.2731 33.5003 76.7515 34.8077C80.1271 38.5466 81.9685 43.475 81.8931 48.5695C81.8931 68.2656 70.2024 72.5953 59.0664 73.8687C60.8548 75.4563 62.4528 78.5805 62.4528 83.3602C62.4528 90.2199 62.4031 95.7467 62.4031 97.4276C62.4031 98.7945 63.2973 100.391 65.8308 99.8896C77.0828 96.0297 86.6294 88.1926 92.7645 77.7791C98.8996 67.3656 101.223 55.0543 99.32 43.0457C97.4169 31.0371 91.4111 20.1137 82.376 12.228C73.3409 4.34223 61.8653 0.00801969 50.0004 2.83781e-06Z" fill="#191717"/>
<path d="M18.9352 73.6056C18.8276 73.8603 18.4385 73.9367 18.1073 73.7669C17.7761 73.5971 17.536 73.249 17.6519 72.9943C17.7678 72.7396 18.1569 72.6632 18.4799 72.833C18.8028 73.0028 19.0512 73.3509 18.927 73.6056H18.9352Z" fill="#191717"/>
<path d="M20.9638 75.9232C20.7236 76.1524 20.26 76.0421 19.9371 75.6855C19.7861 75.5603 19.6875 75.3808 19.6614 75.1835C19.6352 74.9863 19.6835 74.7863 19.7963 74.6243C20.0447 74.3951 20.4918 74.5054 20.823 74.862C21.1542 75.2186 21.2122 75.711 20.9638 75.9232Z" fill="#191717"/>
<path d="M22.9343 78.8777C22.6279 79.0984 22.1063 78.8777 21.8165 78.4362C21.5267 77.9948 21.5101 77.4344 21.8165 77.2137C22.1228 76.993 22.6445 77.2137 22.9343 77.6467C23.2241 78.0797 23.2406 78.657 22.9343 78.8777Z" fill="#191717"/>
<path d="M25.6665 81.7303C25.5658 81.805 25.4516 81.8584 25.3305 81.8874C25.2094 81.9163 25.0839 81.9203 24.9614 81.8989C24.8388 81.8776 24.7216 81.8314 24.6166 81.7631C24.5117 81.6948 24.421 81.6057 24.35 81.5011C23.9112 81.0851 23.787 80.4993 24.0685 80.1937C24.35 79.888 24.8965 79.9644 25.3602 80.3889C25.8238 80.8134 25.9232 81.3907 25.6334 81.6963L25.6665 81.7303Z" fill="#191717"/>
<path d="M29.3591 83.3857C29.2349 83.7847 28.6802 83.9715 28.1089 83.8017C27.5376 83.6319 27.1733 83.1564 27.2809 82.7489C27.3885 82.3414 27.9599 82.1547 28.5312 82.333C29.1025 82.5112 29.4668 82.9782 29.3591 83.3857Z" fill="#191717"/>
<path d="M33.4493 83.6913C33.4493 84.1158 32.9856 84.4639 32.3894 84.4724C31.7933 84.4809 31.3131 84.1498 31.3048 83.7253C31.2965 83.3008 31.7685 82.9527 32.3729 82.9442C32.9773 82.9358 33.4493 83.2753 33.4493 83.6913Z" fill="#191717"/>
<path d="M37.2578 83.0291C37.3323 83.4451 36.9183 83.8781 36.3305 83.9799C35.7426 84.0818 35.2127 83.8356 35.1382 83.4196C35.0637 83.0036 35.4859 82.5706 36.0655 82.4688C36.6451 82.3669 37.1833 82.6131 37.2578 83.0291Z" fill="#191717"/>
</g>
<defs>
<clipPath id="clip0">
<rect width="100" height="100" fill="white"/>
</clipPath>
</defs>
</svg>
