<svg width="510" height="596" viewBox="0 0 510 596" fill="none" xmlns="http://www.w3.org/2000/svg">
  <path d="M509.71 244.842C509.71 394.855 408.525 596 253.798 596C99.0716 596 9.00595e-05 467.824 0 341.385C-9.00594e-05 214.946 117.12 0 271.846 0C380.394 0 509.71 94.8293 509.71 244.842Z" fill="#FDEBD8"/>
  <path d="M351.571 372.547L351.334 371.92L352.22 371.529L352.404 371.907C352.804 372.733 353.381 373.923 354.085 375.379C355.494 378.291 357.413 382.266 359.455 386.519C363.544 395.034 368.116 404.641 370.082 409.078C372.049 413.518 377.155 425.842 381.778 437.075C384.087 442.688 386.273 448.022 387.882 451.953C388.686 453.919 389.346 455.533 389.805 456.657L390.136 457.468L389.269 457.85L388.83 456.96C388.265 455.817 387.457 454.177 386.479 452.193C384.523 448.225 381.891 442.881 379.185 437.374C373.766 426.349 368.065 414.704 366.886 412.122C365.716 409.561 361.75 399.307 358.056 389.635C356.214 384.812 354.446 380.151 353.138 376.695C352.484 374.968 351.946 373.542 351.571 372.547Z" fill="#E9C48E" stroke="#D6B37E" stroke-width="2.09809"/>
  <path d="M331.503 372.556L331.807 371.959L332.694 372.35L332.538 372.74C332.198 373.592 331.707 374.821 331.106 376.322C329.905 379.325 328.262 383.422 326.496 387.798C322.962 396.557 318.947 406.41 316.994 410.853C315.04 415.299 309.378 427.378 304.196 438.364C301.606 443.853 299.139 449.063 297.319 452.901C296.41 454.82 295.662 456.396 295.141 457.492L294.765 458.283L293.898 457.9L294.259 456.976C294.724 455.788 295.39 454.086 296.197 452.026C297.81 447.907 299.983 442.361 302.227 436.65C306.719 425.215 311.479 413.156 312.592 410.544C313.695 407.954 318.597 398.112 323.252 388.865C325.573 384.253 327.824 379.805 329.496 376.51C330.331 374.863 331.022 373.504 331.503 372.556Z" fill="#E9C48E" stroke="#D6B37E" stroke-width="2.09809"/>
  <rect x="111.045" y="268.221" width="323.648" height="8.49575" fill="#BA9467"/>
  <path d="M219.03 232.989C220.659 228.631 224.822 225.743 229.475 225.743C234.377 225.743 238.705 228.944 240.139 233.632L251.831 271.862H204.498L219.03 232.989Z" fill="#2F41A2"/>
  <rect x="147.05" y="146.044" width="162.228" height="90.6213" rx="5" fill="#2C3877"/>
  <rect x="153.119" y="152.113" width="150.092" height="77.6754" fill="white"/>
  <rect x="195.598" y="264.985" width="65.1341" height="6.87751" rx="3.43876" fill="#2C3877"/>
  <rect x="131.273" y="276.717" width="5.66383" height="165.06" fill="#917451"/>
  <rect x="408.8" y="276.717" width="5.66383" height="165.06" fill="#917451"/>
  <path d="M399.988 331.15C399.988 307.278 407.206 293.395 411.446 282.941C403.48 282.941 391.844 321.991 387.805 341.14C387.761 341.349 387.756 341.554 387.776 341.767C388.152 345.928 385.915 355.854 373.922 364.852C361.765 373.972 317.17 372.282 295.591 370.235C295.064 370.185 294.555 370.357 294.16 370.71L292.274 372.395C292.262 372.405 292.252 372.417 292.243 372.43C292.104 372.631 292.869 373.889 293.112 373.876C305.506 373.236 367.692 377.646 369.839 377.646C371.616 377.646 381.459 378.703 385.228 376.085C401.402 364.852 399.988 338.015 399.988 331.15Z" fill="#F9F9F6" stroke="#EAEAE5" stroke-width="2.84353"/>
  <path d="M377.836 363.542C367 374.378 314.601 372.613 298.053 371.767C296.305 371.678 295.657 369.484 297.05 368.425L304.248 362.955C304.545 362.729 304.896 362.595 305.269 362.576C313.808 362.153 333.745 363.511 348.583 360.741C367.32 357.243 378.02 355.762 382.504 347.982C386.988 340.202 394.913 301.244 396.819 296.478C399.08 290.826 406.131 282.908 411.214 278.082C411.99 277.346 413.231 277.489 413.844 278.365C414.409 279.173 414.204 280.286 413.419 280.882C396.628 293.63 398.644 312.348 391.529 334.6C385.858 352.335 384.06 357.318 377.836 363.542Z" fill="white" stroke="#EAEAE5" stroke-width="2.84353"/>
  <path d="M300.969 398.066L278.233 404.397L299.022 441.943L306.774 439.896L300.969 398.066Z" fill="#B28B67"/>
  <path d="M266.616 338.668C278.996 331.715 295.682 334.502 295.682 334.502L308.508 424.106L287.451 431.747C287.451 431.747 254.235 345.621 266.616 338.668Z" fill="#CE802F"/>
  <path d="M262.834 337.601C310.378 327.61 336.366 329.892 384.813 326.188C384.813 326.188 389.75 350.687 371.413 362.561C350.184 376.308 262.979 368.975 262.979 368.975L262.834 337.601Z" fill="#FFA03C"/>
  <path d="M321.201 171.331L347.122 167.91L341.134 205.193C341.134 205.193 330.327 213.731 317.893 210.016C305.459 206.3 321.201 171.331 321.201 171.331Z" fill="#B28B67"/>
  <path d="M354.973 192.071C353.532 197.035 347.631 199.976 344.328 199.991C341.024 200.006 340.477 198.78 340.459 194.903C340.441 191.026 342.552 185.534 349.378 183.375C356.205 181.216 356.025 188.45 354.973 192.071Z" fill="#B28B67"/>
  <path d="M330.61 206.656L341.419 198.589L349.575 228.733L326.737 236.148L330.61 206.656Z" fill="#B28B67"/>
  <path d="M328.287 252.957L315.081 266.731L282.305 218.734L289.751 215.426L328.287 252.957Z" fill="#B28B67"/>
  <path d="M285.5 214.031C285.453 203.759 291.303 212.519 295.816 221.314L286.977 225.59C260.978 214.041 275.452 200.976 285.5 214.031Z" fill="#B28B67"/>
  <path d="M352.564 275.184L344.902 283.93C308.931 284.077 287 235.68 289.922 230.247C292.845 224.814 298.789 222.224 298.789 222.224L352.564 275.184Z" fill="#2C3877"/>
  <path d="M326.654 217.992L346.91 213.183C346.91 213.183 388.977 279.954 391.809 303.013C394.641 326.073 392.503 335.921 388.977 338.21C385.451 340.499 321.835 349.114 321.835 349.114L326.654 217.992Z" fill="#2F41A2"/>
  <path d="M317.268 176.777C321.774 172.229 328.245 171.068 330.918 171.055C330.949 177.846 338.532 186.111 342.32 189.394C347.942 181.446 350.546 183.693 351.257 184.397C356.184 189.278 353.506 194.84 350.843 196.895C348.27 211.621 368.103 207.191 371.358 197.272C393.535 200 389.21 182.335 382.122 179.303C391.776 176.434 385.558 157.358 375.655 157.404C365.752 157.45 368.615 164.746 363.897 164.296C360.123 163.936 357.027 157.259 348.759 153.996C329.861 146.538 320.523 166.702 317.268 176.777Z" fill="#583C12"/>
  <line x1="331.019" y1="168.918" x2="331.18" y2="176.461" stroke="#583C12" stroke-width="1.16565"/>
  <path d="M267.867 412.954L245.505 414.544L257.484 456.288L265.03 455.717L267.867 412.954Z" fill="#B28B67"/>
  <path d="M248.495 340.788C262.148 336.886 277.443 335.407 277.443 335.407L269.495 433.598L247.243 436.162C247.243 436.162 234.843 344.69 248.495 340.788Z" fill="#FFA03C"/>
  <path d="M267.874 464.194C269.035 459.451 266.867 455.069 265.874 453.593C256.417 455.058 257.149 453.397 256.198 451.751L235.317 458.718C230.286 458.001 227.954 462.727 230.315 464.367L267.874 464.194Z" fill="#E6E7EB"/>
  <path d="M312.278 447.992C312.018 443.115 308.676 439.547 307.299 438.421C298.669 442.558 298.89 440.757 297.503 439.456L279.528 452.163C274.505 452.931 273.64 458.13 276.374 459.017L312.278 447.992Z" fill="#E1E2E4"/>
  <path d="M319.762 332.951L310.556 320.41L285.597 346.502L288.884 350.527L319.762 332.951Z" fill="#B28B67"/>
  <path d="M287.434 351.984C286.194 367.078 294.935 353.274 299.46 344.486L291.866 340.435C261.486 350.966 275.499 352.568 287.434 351.984Z" fill="#B28B67"/>
  <path d="M345.973 221.177L353.638 224.093C373.392 280.733 319.263 346.001 309.11 344.341C298.958 342.681 291.648 334.714 291.648 334.714L345.973 221.177Z" fill="#2C3877"/>
  <rect x="199.738" y="203.349" width="56.852" height="13.8497" rx="4.08824" fill="white" stroke="#FFA03C"/>
  <path d="M219.068 210.701C218.948 210.775 218.828 210.838 218.708 210.891C218.595 210.938 218.475 210.971 218.348 210.991C218.608 211.031 218.848 211.125 219.068 211.271L220.658 212.201L220.078 213.201L218.488 212.271C218.368 212.198 218.255 212.121 218.148 212.041C218.048 211.961 217.961 211.875 217.888 211.781C217.975 212.001 218.018 212.255 218.018 212.541V214.381H216.838V212.551C216.838 212.418 216.845 212.288 216.858 212.161C216.878 212.035 216.908 211.915 216.948 211.801C216.875 211.895 216.788 211.978 216.688 212.051C216.588 212.125 216.481 212.198 216.368 212.271L214.788 213.191L214.198 212.191L215.788 211.271C216.041 211.125 216.281 211.031 216.508 210.991C216.275 210.951 216.035 210.855 215.788 210.701L214.198 209.771L214.778 208.771L216.368 209.711C216.488 209.785 216.598 209.861 216.698 209.941C216.798 210.015 216.888 210.098 216.968 210.191C216.881 209.971 216.838 209.721 216.838 209.441V207.591H218.018V209.421C218.018 209.561 218.008 209.695 217.988 209.821C217.975 209.948 217.945 210.068 217.898 210.181C217.978 210.088 218.068 210.005 218.168 209.931C218.268 209.858 218.375 209.785 218.488 209.711L220.068 208.791L220.658 209.791L219.068 210.701ZM227.564 210.701C227.444 210.775 227.324 210.838 227.204 210.891C227.091 210.938 226.971 210.971 226.844 210.991C227.104 211.031 227.344 211.125 227.564 211.271L229.154 212.201L228.574 213.201L226.984 212.271C226.864 212.198 226.751 212.121 226.644 212.041C226.544 211.961 226.457 211.875 226.384 211.781C226.471 212.001 226.514 212.255 226.514 212.541V214.381H225.334V212.551C225.334 212.418 225.341 212.288 225.354 212.161C225.374 212.035 225.404 211.915 225.444 211.801C225.371 211.895 225.284 211.978 225.184 212.051C225.084 212.125 224.977 212.198 224.864 212.271L223.284 213.191L222.694 212.191L224.284 211.271C224.537 211.125 224.777 211.031 225.004 210.991C224.771 210.951 224.531 210.855 224.284 210.701L222.694 209.771L223.274 208.771L224.864 209.711C224.984 209.785 225.094 209.861 225.194 209.941C225.294 210.015 225.384 210.098 225.464 210.191C225.377 209.971 225.334 209.721 225.334 209.441V207.591H226.514V209.421C226.514 209.561 226.504 209.695 226.484 209.821C226.471 209.948 226.441 210.068 226.394 210.181C226.474 210.088 226.564 210.005 226.664 209.931C226.764 209.858 226.871 209.785 226.984 209.711L228.564 208.791L229.154 209.791L227.564 210.701ZM236.06 210.701C235.94 210.775 235.82 210.838 235.7 210.891C235.587 210.938 235.467 210.971 235.34 210.991C235.6 211.031 235.84 211.125 236.06 211.271L237.65 212.201L237.07 213.201L235.48 212.271C235.36 212.198 235.247 212.121 235.14 212.041C235.04 211.961 234.953 211.875 234.88 211.781C234.967 212.001 235.01 212.255 235.01 212.541V214.381H233.83V212.551C233.83 212.418 233.837 212.288 233.85 212.161C233.87 212.035 233.9 211.915 233.94 211.801C233.867 211.895 233.78 211.978 233.68 212.051C233.58 212.125 233.473 212.198 233.36 212.271L231.78 213.191L231.19 212.191L232.78 211.271C233.033 211.125 233.273 211.031 233.5 210.991C233.267 210.951 233.027 210.855 232.78 210.701L231.19 209.771L231.77 208.771L233.36 209.711C233.48 209.785 233.59 209.861 233.69 209.941C233.79 210.015 233.88 210.098 233.96 210.191C233.873 209.971 233.83 209.721 233.83 209.441V207.591H235.01V209.421C235.01 209.561 235 209.695 234.98 209.821C234.967 209.948 234.937 210.068 234.89 210.181C234.97 210.088 235.06 210.005 235.16 209.931C235.26 209.858 235.367 209.785 235.48 209.711L237.06 208.791L237.65 209.791L236.06 210.701ZM244.556 210.701C244.436 210.775 244.316 210.838 244.196 210.891C244.083 210.938 243.963 210.971 243.836 210.991C244.096 211.031 244.336 211.125 244.556 211.271L246.146 212.201L245.566 213.201L243.976 212.271C243.856 212.198 243.743 212.121 243.636 212.041C243.536 211.961 243.449 211.875 243.376 211.781C243.463 212.001 243.506 212.255 243.506 212.541V214.381H242.326V212.551C242.326 212.418 242.333 212.288 242.346 212.161C242.366 212.035 242.396 211.915 242.436 211.801C242.363 211.895 242.276 211.978 242.176 212.051C242.076 212.125 241.969 212.198 241.856 212.271L240.276 213.191L239.686 212.191L241.276 211.271C241.529 211.125 241.769 211.031 241.996 210.991C241.763 210.951 241.523 210.855 241.276 210.701L239.686 209.771L240.266 208.771L241.856 209.711C241.976 209.785 242.086 209.861 242.186 209.941C242.286 210.015 242.376 210.098 242.456 210.191C242.369 209.971 242.326 209.721 242.326 209.441V207.591H243.506V209.421C243.506 209.561 243.496 209.695 243.476 209.821C243.463 209.948 243.433 210.068 243.386 210.181C243.466 210.088 243.556 210.005 243.656 209.931C243.756 209.858 243.863 209.785 243.976 209.711L245.556 208.791L246.146 209.791L244.556 210.701Z" fill="#FFA03C"/>
  <path fill-rule="evenodd" clip-rule="evenodd" d="M238.979 177.963C240.356 178.595 241.313 179.986 241.313 181.6V191.805C241.313 194.014 239.522 195.805 237.313 195.805H219.421C217.212 195.805 215.421 194.014 215.421 191.805V181.6C215.421 179.93 216.445 178.499 217.899 177.9C218.494 167.323 221.956 162.631 228.931 162.631C235.919 162.631 238.549 167.342 238.979 177.963ZM221.726 177.6C221.631 170.03 223.818 166.613 228.977 166.613C233.774 166.613 235.449 170.03 235.235 177.6H221.726Z" fill="#FFA03C"/>
  <path fill-rule="evenodd" clip-rule="evenodd" d="M228.711 185.608C229.449 185.376 229.985 184.686 229.985 183.871C229.985 182.865 229.17 182.05 228.165 182.05C227.159 182.05 226.344 182.865 226.344 183.871C226.344 184.686 226.88 185.376 227.619 185.608V189.696H228.711V185.608Z" fill="white"/>
</svg>
