<svg width="2568" height="871" viewBox="0 0 2568 871" fill="none" xmlns="http://www.w3.org/2000/svg">
<rect width="1284" height="871" fill="#C76803"/>
<path fill-rule="evenodd" clip-rule="evenodd" d="M976.086 471.422C950.882 495.325 908.35 496.819 881.571 471.422C856.367 447.52 854.792 407.185 881.571 381.788L1284 0.142391V0H0V0.592924L404.063 383.788C430.842 409.185 429.267 449.52 404.063 473.422C377.283 498.819 334.751 497.325 309.547 473.422L0 179.862V297.801L247.588 532.602C274.367 557.998 272.792 598.334 247.588 622.236C220.808 647.633 178.276 646.139 153.072 622.236L0 477.069V871H1284V476.619L1132.56 620.236C1107.36 644.139 1064.83 645.633 1038.05 620.236C1012.84 596.334 1011.27 555.998 1038.05 530.602L1284 297.35V179.411L976.086 471.422ZM629.905 802.648C629.905 819.139 622.441 833.768 610.495 843.706C600.265 854.8 585.094 861.637 567.896 861.453L68.3467 856.103C36.6293 855.764 11.236 831.682 10.8779 801.603C10.5197 771.523 35.3458 747.979 67.0632 748.319L514.973 753.116V323.571C514.973 293.153 540.365 269.072 572.439 269.072C604.513 269.072 629.905 293.153 629.905 323.571L629.905 802.648ZM655.729 800.647C655.729 817.137 663.192 831.765 675.136 841.703C685.366 852.799 700.539 859.637 717.738 859.453L1217.29 854.103C1249 853.764 1274.4 829.682 1274.76 799.602C1275.11 769.523 1250.29 745.979 1218.57 746.319L770.661 751.115V321.57C770.661 291.153 745.27 267.072 713.196 267.072C681.122 267.072 655.73 291.153 655.73 321.57L655.729 800.647Z" fill="#E07926"/>
<rect x="1284" width="1284" height="871" fill="#C76803"/>
<path fill-rule="evenodd" clip-rule="evenodd" d="M2260.09 471.422C2234.88 495.325 2192.35 496.819 2165.57 471.422C2140.37 447.52 2138.79 407.185 2165.57 381.788L2568 0.142391V0H1284V0.592924L1688.06 383.788C1714.84 409.185 1713.27 449.52 1688.06 473.422C1661.28 498.819 1618.75 497.325 1593.55 473.422L1284 179.862V297.801L1531.59 532.602C1558.37 557.998 1556.79 598.334 1531.59 622.236C1504.81 647.633 1462.28 646.139 1437.07 622.236L1284 477.069V871H2568V476.619L2416.56 620.236C2391.36 644.139 2348.83 645.633 2322.05 620.236C2296.84 596.334 2295.27 555.998 2322.05 530.602L2568 297.35V179.411L2260.09 471.422ZM1913.9 802.648C1913.9 819.139 1906.44 833.768 1894.49 843.706C1884.27 854.8 1869.09 861.637 1851.9 861.453L1352.35 856.103C1320.63 855.764 1295.24 831.682 1294.88 801.603C1294.52 771.523 1319.35 747.979 1351.06 748.319L1798.97 753.116V323.571C1798.97 293.153 1824.36 269.072 1856.44 269.072C1888.51 269.072 1913.9 293.153 1913.9 323.571L1913.9 802.648ZM1939.73 800.647C1939.73 817.137 1947.19 831.765 1959.14 841.703C1969.37 852.799 1984.54 859.637 2001.74 859.453L2501.29 854.103C2533 853.764 2558.4 829.682 2558.76 799.602C2559.11 769.523 2534.29 745.979 2502.57 746.319L2054.66 751.115V321.57C2054.66 291.153 2029.27 267.072 1997.2 267.072C1965.12 267.072 1939.73 291.153 1939.73 321.57L1939.73 800.647Z" fill="#E07926"/>
</svg>
